<svg version="1.1" id="Layer_1" xmlns="http://www.w3.org/2000/svg" xmlns:xlink="http://www.w3.org/1999/xlink" x="0px" y="0px"
	 width="100%" viewBox="0 0 640 640" enable-background="new 0 0 640 640" xml:space="preserve">
<path fill="#020202" opacity="1.000000" stroke="none" 
	d="
M1.000000,45.000000 
	C1.000000,30.337959 1.000000,15.675920 1.000000,1.010409 
	C214.261414,1.006939 427.522827,1.006939 640.892090,1.006939 
	C640.892090,214.333298 640.892090,427.666626 640.892090,641.000000 
	C624.256531,641.000000 607.595215,641.000000 590.436157,640.655334 
	C589.051392,639.133240 588.284180,637.838013 587.259766,636.795654 
	C565.847900,615.009277 544.436707,593.222107 522.959961,571.499817 
	C511.137177,559.541809 499.224182,547.672424 487.296967,535.818298 
	C476.913483,525.498474 466.452942,515.256165 455.875793,504.662354 
	C455.826141,502.232758 455.927185,500.120361 456.060944,497.539734 
	C456.093658,489.462189 456.093658,481.852844 456.093658,472.894775 
	C452.692566,478.908752 450.146667,483.410522 447.261902,487.916473 
	C446.330811,488.727203 445.738617,489.533752 444.738922,490.732971 
	C444.001862,491.309143 443.672272,491.492676 443.411987,491.264893 
	C441.063934,488.219879 438.646545,485.586151 436.161926,482.491089 
	C436.094696,471.372467 436.094696,460.715149 436.094696,450.057800 
	C433.405334,454.560455 432.107086,459.400696 429.519043,463.407959 
	C426.617645,467.900452 421.807312,469.241913 416.075073,467.768188 
	C416.075073,462.786499 415.963348,457.976501 416.108154,453.174194 
	C416.238892,448.837616 416.650208,444.509491 417.182007,440.535980 
	C421.744080,440.939056 426.062225,440.963074 430.379639,441.032654 
	C441.361755,441.209656 447.014221,445.225525 451.025177,455.643829 
	C451.750397,457.527588 452.529297,459.390656 453.283386,461.263275 
	C453.577057,461.181213 453.870697,461.099152 454.164368,461.017090 
	C454.164368,453.794678 454.164368,446.572296 454.164368,438.928955 
	C452.699066,438.928955 451.253052,438.928955 449.651245,438.900085 
	C449.495422,438.871216 449.184021,438.930298 448.712769,438.900635 
	C444.505066,438.816101 440.768616,438.761292 436.947418,438.398682 
	C435.563507,438.288361 434.264282,438.485809 432.506226,438.761749 
	C427.020081,438.920349 421.992767,439.000488 417.076599,439.010254 
	C417.187775,438.939941 417.100159,438.691833 417.033142,438.386658 
	C416.313812,437.534393 415.661530,436.987335 415.009216,436.440277 
	C414.661865,437.199066 414.314545,437.957855 413.511871,438.792786 
	C409.049072,438.811737 405.041595,438.754608 400.955811,438.380493 
	C399.696564,437.075195 398.515656,436.086945 396.319305,434.248840 
	C399.298065,434.079041 401.418610,433.313782 402.822845,434.004608 
	C406.374786,435.752045 406.741394,433.762238 407.457336,431.100525 
	C410.255646,431.074402 412.617493,431.126678 415.037170,431.514160 
	C415.907349,432.504700 416.719757,433.160095 417.532135,433.815491 
	C418.028351,432.936646 418.524597,432.057800 419.450439,431.100494 
	C421.913239,431.074341 423.946442,431.126678 426.062286,431.513733 
	C428.690247,434.227753 431.152710,435.756165 433.386414,431.100616 
	C434.494568,431.074493 435.237030,431.126740 436.028687,431.494965 
	C436.717438,432.385895 437.356995,432.960846 437.996521,433.535828 
	C438.337952,432.750061 438.679352,431.964264 439.344177,431.101074 
	C440.105042,431.074493 440.542480,431.125336 441.104492,431.544556 
	C444.087738,432.246582 447.008881,433.105652 449.788696,432.775360 
	C452.964905,432.397949 452.562775,430.532440 450.211090,428.596619 
	C450.156036,427.900452 450.196167,427.496735 450.637756,426.892273 
	C451.350586,425.278961 451.931458,423.866852 451.933868,422.453796 
	C451.987244,391.346161 451.998444,360.238312 451.906036,329.130859 
	C451.901917,327.742157 450.844940,326.356628 450.210205,324.635712 
	C450.165863,323.848694 450.189697,323.395569 450.417542,322.721558 
	C449.187683,320.218109 448.267609,317.433990 444.479187,318.294556 
	C441.250305,319.028046 440.847809,321.099213 440.944580,323.802490 
	C440.972107,324.572418 440.518738,325.367950 440.248810,326.138763 
	C438.499634,331.133057 436.654968,336.096222 435.028381,341.129944 
	C434.423370,343.002136 434.320953,345.036743 433.998352,347.324646 
	C433.639832,348.430481 433.272278,349.208954 432.530212,349.987213 
	C427.562347,350.590027 428.288574,352.544342 430.866455,355.334534 
	C424.650848,370.578949 416.113159,384.018250 405.261475,395.891174 
	C396.928864,405.008026 387.550293,412.820374 374.854492,416.106506 
	C373.658661,416.722137 372.826202,417.345215 371.673218,418.199585 
	C370.585205,418.583069 369.817657,418.735291 369.046326,418.481384 
	C366.708588,414.911072 364.713928,411.413116 361.984161,408.638306 
	C347.208618,393.618896 332.294647,378.734497 317.321991,363.911041 
	C314.088623,360.709900 310.418243,357.950165 307.018585,354.649933 
	C307.742889,353.351868 308.357117,352.360168 309.058441,351.434448 
	C352.188446,294.501892 395.304718,237.558914 438.512024,180.685089 
	C441.218323,177.122757 442.632629,173.668930 441.169037,169.428955 
	C363.989838,169.428955 287.064484,169.428955 209.704407,169.428955 
	C209.704407,175.541687 209.724304,181.345245 209.700851,187.148621 
	C209.611938,209.138062 209.508987,231.127441 209.040558,253.063263 
	C207.112503,251.827454 205.379868,250.816895 204.026520,249.434921 
	C195.721085,240.953796 187.615509,232.274567 179.221130,223.883621 
	C170.820709,215.486603 162.038391,207.471359 153.647308,199.065353 
	C144.899582,190.302017 136.507904,181.184143 127.801781,172.378235 
	C113.512276,157.924957 99.052902,143.639709 84.746292,129.203201 
	C76.005188,120.382736 67.451752,111.376610 58.749149,102.517593 
	C47.727917,91.298286 36.696167,80.088203 25.563591,68.979736 
	C17.464170,60.897854 9.194026,52.987068 1.000000,45.000000 
M452.486420,434.558868 
	C452.486420,434.558868 452.446014,434.481384 452.486420,434.558868 
z"/>
<path fill="#202020" opacity="1.000000" stroke="none" 
	d="
M1.000000,45.468658 
	C9.194026,52.987068 17.464170,60.897854 25.563591,68.979736 
	C36.696167,80.088203 47.727917,91.298286 58.749149,102.517593 
	C67.451752,111.376610 76.005188,120.382736 84.746292,129.203201 
	C99.052902,143.639709 113.512276,157.924957 127.801781,172.378235 
	C136.507904,181.184143 144.899582,190.302017 153.647308,199.065353 
	C162.038391,207.471359 170.820709,215.486603 179.221130,223.883621 
	C187.615509,232.274567 195.721085,240.953796 204.026520,249.434921 
	C205.379868,250.816895 207.112503,251.827454 209.204224,253.388336 
	C209.738617,257.333832 209.738617,260.900665 209.738617,264.911133 
	C212.282059,264.911133 214.386398,264.911133 216.875702,264.913666 
	C218.239700,265.501434 219.388672,265.916107 220.172623,266.697174 
	C234.753510,281.224670 249.241989,295.845367 263.888855,310.305756 
	C266.157379,312.545410 269.109253,314.092896 271.712585,316.289886 
	C271.162384,317.271362 270.632935,317.914429 270.128754,318.576752 
	C244.022034,352.872589 217.898849,387.156006 191.876480,421.515778 
	C190.765762,422.982361 190.589645,425.156769 189.625504,427.081909 
	C187.923370,429.509186 185.993011,431.719482 185.399658,434.243988 
	C184.882217,436.445648 183.120956,439.999023 187.836075,440.729645 
	C188.370712,440.528290 188.671967,440.615326 189.233002,441.134613 
	C190.335342,441.385040 191.136887,441.345215 192.202988,441.181763 
	C192.972824,441.278259 193.478073,441.498352 193.991791,442.155273 
	C193.250778,446.709106 195.192245,448.667938 199.378693,449.429504 
	C199.654510,459.846283 199.765228,469.844666 199.729767,479.842529 
	C199.680740,493.665192 199.600845,493.710968 185.869537,497.909912 
	C209.135345,497.909912 231.127319,497.909912 252.913391,497.909912 
	C252.913391,489.181458 252.913391,480.707733 252.913391,472.234009 
	C252.513550,471.864990 252.113693,471.496002 251.713852,471.126984 
	C247.129639,492.870270 233.530685,499.979858 212.628296,496.019928 
	C212.628296,494.565277 212.629059,492.784698 212.628159,491.004089 
	C212.621643,478.171600 212.609116,465.339142 212.610001,452.506653 
	C212.610596,443.789948 215.324615,441.022369 224.178467,440.381134 
	C225.150345,440.310730 226.054810,439.309540 226.973495,438.429169 
	C226.546936,437.572144 226.137405,437.025970 225.727875,436.479797 
	C225.488556,437.206604 225.249237,437.933411 224.598328,438.756897 
	C222.787827,438.782257 221.388885,438.710907 219.995880,438.291473 
	C220.137909,436.753082 220.274002,435.562775 220.360992,434.802124 
	C214.269531,435.236603 208.527176,435.502747 202.829559,436.157928 
	C201.479797,436.313141 200.280182,437.774078 198.679504,438.733704 
	C197.894379,438.769592 197.441254,438.706207 196.880997,438.316284 
	C196.179749,435.730286 195.585632,433.470795 195.451202,431.111298 
	C245.640732,431.006165 295.370575,430.987457 345.100403,431.006348 
	C356.403442,431.010651 367.706451,431.145111 379.065430,431.554871 
	C379.084595,434.142120 379.047791,436.394196 378.550598,438.743103 
	C371.061462,438.896942 364.032684,438.953979 356.985413,438.662933 
	C356.432037,437.697968 355.897156,437.081085 355.362244,436.464233 
	C354.497589,437.482605 353.632965,438.501007 352.106873,440.298431 
	C354.605316,440.136383 355.723145,440.063904 357.205444,440.093994 
	C360.730347,441.457611 363.890839,442.718658 367.149048,444.263245 
	C367.795227,445.110809 368.343719,445.674774 368.985718,446.590027 
	C369.657928,448.274780 370.236694,449.608276 370.725037,451.242126 
	C370.832550,452.337952 371.030457,453.133453 371.173370,454.399048 
	C371.189819,462.943115 371.261322,471.017090 370.998566,479.375061 
	C370.087067,479.581238 369.509827,479.503387 368.745605,479.130005 
	C365.946838,476.238708 363.335083,473.642914 360.683838,470.744629 
	C359.740234,469.670929 358.836151,468.899689 357.942139,468.088684 
	C357.952240,468.048889 357.872192,468.066895 357.807739,467.760010 
	C356.818512,466.660614 355.893677,465.868042 354.781403,464.803467 
	C346.916046,456.521759 339.266937,448.483978 331.518250,440.543304 
	C330.695679,439.700378 329.301392,438.992462 328.152588,438.961761 
	C322.256531,438.804199 316.354004,438.888794 311.131012,438.888794 
	C313.342041,441.490967 315.680420,444.243011 317.982788,447.463043 
	C318.093231,458.991547 318.239655,470.052063 318.327393,481.541565 
	C319.270233,491.728760 314.029053,496.247742 305.102020,497.817383 
	C315.260468,497.817383 325.418884,497.817383 335.577301,497.817383 
	C332.875488,496.627502 330.045227,496.373932 327.452667,495.451935 
	C320.577881,493.006927 320.592224,486.810638 320.197449,480.634552 
	C320.396210,471.294739 320.375092,462.322388 320.504272,453.352234 
	C320.528595,451.662262 319.515961,448.928680 323.236633,449.617523 
	C326.873657,453.493011 330.356079,457.034454 333.797089,460.615662 
	C345.916107,473.228638 358.020905,485.855255 370.134399,498.865509 
	C370.943146,501.123291 371.748596,502.992249 372.580139,504.921844 
	C377.822968,501.709686 377.859253,498.384827 373.189026,492.588623 
	C373.163239,490.440826 373.234192,488.715149 373.650513,486.965088 
	C377.881165,484.768829 376.148438,483.322479 373.257141,481.553253 
	C373.146851,475.961853 373.014008,470.825989 373.166779,465.698669 
	C373.312897,460.793213 373.755951,455.896576 374.430237,450.982361 
	C376.069611,450.167633 378.501740,449.244598 378.432129,448.585938 
	C378.060211,445.066498 380.550110,445.049133 382.535217,445.085571 
	C386.146881,445.151794 387.227356,443.354004 387.050415,440.114807 
	C387.031982,440.051849 387.158264,440.016205 387.520691,440.002594 
	C388.850159,439.988831 389.817169,439.988708 391.046570,440.089813 
	C391.839264,440.364532 392.369507,440.538025 392.963165,441.047791 
	C393.190979,442.776459 393.180542,444.220795 393.573914,445.545135 
	C393.901428,446.647888 394.703094,447.609833 395.294739,448.634125 
	C398.717560,446.614899 400.524475,449.842041 403.090820,451.435394 
	C403.114044,454.583740 403.015747,457.294617 402.640747,460.058716 
	C402.069733,460.422668 401.775391,460.733398 401.481049,461.044159 
	C401.959930,461.360931 402.438843,461.677734 403.051331,462.382385 
	C403.096954,463.848663 403.008942,464.927032 402.571503,466.102051 
	C400.583862,468.356934 399.786896,470.413483 403.052399,472.321533 
	C403.095673,473.100616 403.009155,473.552917 402.573120,474.101685 
	C400.582153,476.355530 399.788513,478.410980 403.049408,480.321655 
	C403.091522,481.100983 403.004578,481.553284 402.550049,482.116119 
	C400.384247,486.101318 398.586029,489.975952 396.787781,493.850555 
	C396.345764,493.716980 395.903748,493.583374 395.461761,493.449799 
	C395.303619,492.181000 395.145477,490.912201 394.790955,488.067657 
	C392.931458,491.198639 392.074615,493.239746 390.683685,494.806793 
	C389.419128,496.231445 387.573975,497.140778 385.984802,498.277283 
	C386.072998,498.680817 386.161224,499.084320 386.249451,499.487854 
	C387.816132,499.028107 389.382812,498.568359 391.338013,498.139130 
	C392.489197,498.303741 393.251892,498.437866 394.093323,498.788757 
	C394.776947,498.861694 395.381866,498.717834 396.391846,498.448914 
	C398.200439,498.395691 399.603973,498.467529 401.013489,498.937561 
	C400.430817,503.069794 402.054138,504.244690 405.731049,504.067291 
	C410.641418,503.830414 414.458221,501.612000 418.405518,498.420898 
	C420.553925,498.379456 422.283905,498.457886 424.184662,498.861664 
	C428.835449,499.784393 433.304260,500.552155 437.804077,500.848114 
	C438.810455,500.914307 439.925659,499.326080 441.322876,498.396637 
	C442.105988,498.370392 442.556976,498.447083 443.046814,498.880646 
	C447.399231,501.151520 451.712830,503.065552 456.026459,504.979553 
	C466.452942,515.256165 476.913483,525.498474 487.296967,535.818298 
	C499.224182,547.672424 511.137177,559.541809 522.959961,571.499817 
	C544.436707,593.222107 565.847900,615.009277 587.259766,636.795654 
	C588.284180,637.838013 589.051392,639.133240 589.969177,640.655334 
	C393.739136,641.000000 197.478271,641.000000 1.000000,641.000000 
	C1.000000,442.645813 1.000000,244.291565 1.000000,45.468658 
M269.075348,442.115112 
	C270.381104,444.312836 272.754150,446.480438 272.817230,448.713257 
	C273.192200,461.980499 273.157135,475.264435 272.984985,488.539185 
	C272.924713,493.188690 269.664795,495.547089 265.398254,496.537567 
	C264.052338,496.850037 262.648102,496.911407 261.270569,497.087677 
	C261.290985,497.315033 261.311401,497.542358 261.331787,497.769714 
	C273.524139,497.769714 285.716492,497.769714 297.908844,497.769714 
	C287.431000,495.175690 286.096497,493.507843 286.110809,482.592255 
	C286.123230,473.110443 286.099365,463.628601 286.126038,454.146851 
	C286.155334,443.738525 287.297150,442.354370 297.444397,440.133789 
	C297.571930,440.105896 297.596069,439.605316 297.681335,439.275513 
	C285.606476,439.275513 273.549774,439.275513 261.493073,439.275513 
	C261.479431,439.465637 261.465790,439.655731 261.452118,439.845856 
	C263.762604,440.463776 266.073059,441.081726 269.075348,442.115112 
z"/>
<path fill="#EEEEED" opacity="1.000000" stroke="none" 
	d="
M189.978119,427.001434 
	C190.589645,425.156769 190.765762,422.982361 191.876480,421.515778 
	C217.898849,387.156006 244.022034,352.872589 270.128754,318.576752 
	C270.632935,317.914429 271.162384,317.271362 271.957001,316.049225 
	C277.247559,308.795563 282.261169,302.112000 287.573273,295.321960 
	C288.284637,294.506073 288.697479,293.796661 289.056091,293.053741 
	C289.001801,293.020264 289.092590,293.109985 289.383362,293.029480 
	C290.039520,292.265869 290.404877,291.582733 291.006592,290.745850 
	C291.525848,290.112640 291.808746,289.633209 292.402832,289.055756 
	C293.234467,288.026031 293.754822,287.094269 294.481812,286.063293 
	C294.955261,285.768982 295.093445,285.506256 295.388672,285.076111 
	C296.053955,284.298889 296.433563,283.621368 297.066162,282.721008 
	C299.299011,279.801605 301.278839,277.105072 303.573669,274.291199 
	C305.012878,272.532959 306.137085,270.892059 307.128723,269.132507 
	C306.996185,269.013885 307.264984,269.245056 307.544891,269.133392 
	C308.186981,268.338318 308.549164,267.654938 309.117035,266.801636 
	C309.612366,266.192108 309.902039,265.752472 310.497864,265.214417 
	C311.486542,264.061554 312.169006,263.007111 313.008545,261.861847 
	C313.165558,261.771057 313.274963,261.425171 313.559143,261.289307 
	C314.217224,260.429810 314.591064,259.706146 315.203339,258.802979 
	C316.003784,257.819977 316.565826,257.016541 317.405853,256.093140 
	C318.072845,255.292099 318.461853,254.610962 319.135742,253.748291 
	C331.012268,238.156418 342.603943,222.746048 354.494751,207.228973 
	C355.178680,206.409805 355.563477,205.697311 356.179565,204.800903 
	C356.987457,203.827362 357.564087,203.037735 358.433472,202.150787 
	C359.077942,201.350006 359.429657,200.646591 360.014465,199.784271 
	C360.538177,199.154556 360.828796,198.683716 361.414032,198.126205 
	C362.078156,197.343338 362.447693,196.647171 363.076385,195.749908 
	C364.622223,193.810471 365.908875,192.072113 367.473755,190.200424 
	C368.161316,189.373718 368.570618,188.680328 368.989990,187.993469 
	C369.000000,188.000000 368.986359,187.980148 369.294769,187.877869 
	C370.379211,186.506256 371.155243,185.236923 372.197937,183.797913 
	C373.317108,182.432602 374.169525,181.236969 375.344147,179.902328 
	C376.470032,178.505112 377.273743,177.246902 378.349854,175.562241 
	C373.621704,175.562241 369.756226,175.562241 365.517517,175.476868 
	C364.129761,175.446869 363.115204,175.502228 361.712463,175.413727 
	C360.513458,175.364227 359.702698,175.458572 358.518219,175.469299 
	C357.129761,175.441620 356.114960,175.497574 354.711731,175.411438 
	C353.512939,175.362717 352.702576,175.456085 351.484741,175.465179 
	C349.418121,175.437134 347.759003,175.493347 345.710907,175.408966 
	C344.511871,175.363388 343.701874,175.458405 342.518188,175.469604 
	C341.129822,175.442123 340.115082,175.498474 338.693726,175.412750 
	C337.155304,175.365540 336.023438,175.460403 334.449341,175.470276 
	C330.705292,175.445496 327.403473,175.505722 323.661530,175.421326 
	C319.489716,175.552917 315.758057,175.829117 311.589142,176.054642 
	C309.139374,176.269012 307.126801,176.534073 304.847717,176.724487 
	C304.059875,176.789352 303.538544,176.928864 302.604553,177.043320 
	C299.499695,177.589355 296.807495,178.160431 293.744690,178.668030 
	C287.708496,180.583054 282.042938,182.561584 276.127258,184.563477 
	C275.593750,184.757751 275.310364,184.928665 274.668274,185.091003 
	C271.713928,186.626846 269.118347,188.171265 266.231415,189.790634 
	C265.320251,190.357559 264.700439,190.849548 263.764160,191.344635 
	C262.505707,192.158585 261.563721,192.969421 260.431946,193.831757 
	C260.242218,193.883240 260.060486,194.231934 259.741821,194.255112 
	C258.529755,195.137222 257.636292,195.996155 256.437988,196.974487 
	C253.677582,199.597824 251.222046,202.101746 248.465332,204.719131 
	C247.723251,205.526962 247.282364,206.221313 246.588562,207.103821 
	C245.160233,208.752090 243.984818,210.212158 242.500763,211.803635 
	C240.805054,213.963165 239.418015,215.991287 238.013458,218.013077 
	C237.995941,218.006760 238.023865,218.033981 237.739197,218.163208 
	C237.028305,219.220444 236.602097,220.148468 235.929932,221.232880 
	C235.329575,222.072479 234.975143,222.755676 234.325134,223.573334 
	C233.687408,224.472168 233.345276,225.236557 232.868378,226.100128 
	C232.733612,226.199310 232.712662,226.533310 232.421692,226.720184 
	C230.448700,230.612442 228.766678,234.317795 226.936371,238.221527 
	C226.619019,238.710785 226.520752,239.023865 226.249207,239.554657 
	C225.771347,240.523849 225.537567,241.297562 225.131836,242.345001 
	C224.665009,243.417725 224.370117,244.216736 223.833466,245.193329 
	C223.483566,245.935120 223.375381,246.499344 223.116959,247.366226 
	C222.534348,248.942078 222.101974,250.215256 221.380127,251.702225 
	C220.715897,253.273972 220.341141,254.631912 219.844208,256.124451 
	C219.722061,256.259033 219.766068,256.619873 219.503632,256.815979 
	C218.938171,258.033234 218.635162,259.054382 218.181671,260.412476 
	C217.517700,262.136627 217.004227,263.523895 216.490753,264.911133 
	C214.386398,264.911133 212.282059,264.911133 209.738617,264.911133 
	C209.738617,260.900665 209.738617,257.333832 209.574951,253.441925 
	C209.508987,231.127441 209.611938,209.138062 209.700851,187.148621 
	C209.724304,181.345245 209.704407,175.541687 209.704407,169.428955 
	C287.064484,169.428955 363.989838,169.428955 441.169037,169.428955 
	C442.632629,173.668930 441.218323,177.122757 438.512024,180.685089 
	C395.304718,237.558914 352.188446,294.501892 309.058441,351.434448 
	C308.357117,352.360168 307.742889,353.351868 306.704254,354.767883 
	C289.200867,377.763733 272.081268,400.304535 254.345459,423.656616 
	C256.402130,423.835815 257.162933,423.959991 257.923706,423.959961 
	C284.546906,423.958649 311.182281,424.407684 337.787170,423.704071 
	C348.243317,423.427551 358.631195,420.569763 369.050140,418.887512 
	C369.817657,418.735291 370.585205,418.583069 372.012238,418.264954 
	C373.520447,417.437347 374.369141,416.775635 375.217834,416.113892 
	C387.550293,412.820374 396.928864,405.008026 405.261475,395.891174 
	C416.113159,384.018250 424.650848,370.578949 431.133270,355.118591 
	C431.916412,353.024323 432.410583,351.505859 432.904755,349.987396 
	C433.272278,349.208954 433.639832,348.430481 434.277466,347.111816 
	C436.798950,340.224060 439.466888,333.986145 441.174194,327.495514 
	C442.625671,321.977570 445.671478,321.417969 450.213531,322.942444 
	C450.189697,323.395569 450.165863,323.848694 450.101196,325.095093 
	C450.119049,359.623260 450.177704,393.358124 450.236328,427.093018 
	C450.196167,427.496735 450.156036,427.900452 450.101318,428.954773 
	C447.051147,430.128937 444.015533,430.652527 440.979950,431.176147 
	C440.542480,431.125336 440.105042,431.074493 438.971008,430.997314 
	C437.509460,431.040283 436.744446,431.109619 435.979462,431.178986 
	C435.237030,431.126740 434.494568,431.074493 432.955566,430.996460 
	C430.099213,431.040100 428.039429,431.109528 425.979614,431.178986 
	C423.946442,431.126678 421.913239,431.074341 419.054352,430.996338 
	C417.145538,431.040131 416.062469,431.109558 414.979370,431.178986 
	C412.617493,431.126678 410.255646,431.074402 406.997559,430.996124 
	C397.070709,431.053314 388.040070,431.136505 379.009460,431.219666 
	C367.706451,431.145111 356.403442,431.010651 345.100403,431.006348 
	C295.370575,430.987457 245.640732,431.006165 195.050842,431.024200 
	C190.929077,431.630859 189.790924,430.007874 189.978119,427.001434 
z"/>
<path fill="#222222" opacity="1.000000" stroke="none" 
	d="
M369.046326,418.481384 
	C358.631195,420.569763 348.243317,423.427551 337.787170,423.704071 
	C311.182281,424.407684 284.546906,423.958649 257.923706,423.959961 
	C257.162933,423.959991 256.402130,423.835815 254.345459,423.656616 
	C272.081268,400.304535 289.200867,377.763733 306.634827,355.105042 
	C310.418243,357.950165 314.088623,360.709900 317.321991,363.911041 
	C332.294647,378.734497 347.208618,393.618896 361.984161,408.638306 
	C364.713928,411.413116 366.708588,414.911072 369.046326,418.481384 
z"/>
<path fill="#E7E7E6" opacity="1.000000" stroke="none" 
	d="
M402.917480,460.005493 
	C403.015747,457.294617 403.114044,454.583740 403.200134,451.045044 
	C402.364319,443.110931 400.237213,441.145599 392.899780,440.711517 
	C392.369507,440.538025 391.839264,440.364532 391.164307,439.824066 
	C391.728455,439.181824 392.437317,438.906586 393.461212,438.709167 
	C394.203735,438.746735 394.631226,438.706451 395.414795,438.777527 
	C397.525299,438.825073 399.279694,438.761292 401.034119,438.697510 
	C405.041595,438.754608 409.049072,438.811737 413.899719,438.877625 
	C415.528656,438.821564 416.314392,438.756683 417.100159,438.691833 
	C417.100159,438.691833 417.187775,438.939941 417.072510,439.284607 
	C416.950714,439.812073 416.944214,439.994873 416.937744,440.177643 
	C416.650208,444.509491 416.238892,448.837616 416.108154,453.174194 
	C415.963348,457.976501 416.075073,462.786499 416.075073,467.768188 
	C421.807312,469.241913 426.617645,467.900452 429.519043,463.407959 
	C432.107086,459.400696 433.405334,454.560455 436.094696,450.057800 
	C436.094696,460.715149 436.094696,471.372467 436.053986,482.883118 
	C436.013275,485.304352 436.013275,486.872253 436.013275,488.440155 
	C433.379181,484.102417 432.075928,479.307739 429.498718,475.340637 
	C426.599670,470.878082 421.673615,469.819000 416.442749,470.539093 
	C416.442749,479.402588 416.442749,487.919678 416.442749,496.823486 
	C420.297150,496.823486 423.892853,497.422668 427.191895,496.688477 
	C432.675720,495.468170 437.969086,493.391937 443.342651,491.676147 
	C443.672272,491.492676 444.001862,491.309143 445.052765,490.704926 
	C446.382996,489.493591 446.991882,488.702942 447.600800,487.912292 
	C450.146667,483.410522 452.692566,478.908752 456.093658,472.894775 
	C456.093658,481.852844 456.093658,489.462189 455.704529,497.593384 
	C451.212952,498.251404 447.110443,498.387604 443.007965,498.523773 
	C442.556976,498.447083 442.105988,498.370392 440.863464,498.307800 
	C434.719238,498.393372 429.366577,498.464844 424.013885,498.536285 
	C422.283905,498.457886 420.553925,498.379456 418.013794,498.313385 
	C411.804962,498.396942 406.406219,498.468140 401.007507,498.539368 
	C399.603973,498.467529 398.200439,498.395691 396.069519,498.336914 
	C394.899597,498.423950 394.457062,498.497955 394.014557,498.571960 
	C393.251892,498.437866 392.489197,498.303741 391.438721,497.761841 
	C402.522430,494.617859 403.882568,492.843689 402.917633,482.005554 
	C403.004578,481.553284 403.091522,481.100983 403.169312,479.905914 
	C403.080963,477.443817 403.001801,475.724518 402.922607,474.005219 
	C403.009155,473.552917 403.095673,473.100616 403.171875,471.905701 
	C403.081360,469.443848 403.001129,467.724609 402.920898,466.005402 
	C403.008942,464.927032 403.096954,463.848663 403.166687,462.057495 
	C403.071442,460.898315 402.994446,460.451904 402.917480,460.005493 
z"/>
<path fill="#292929" opacity="1.000000" stroke="none" 
	d="
M443.411987,491.264893 
	C437.969086,493.391937 432.675720,495.468170 427.191895,496.688477 
	C423.892853,497.422668 420.297150,496.823486 416.442749,496.823486 
	C416.442749,487.919678 416.442749,479.402588 416.442749,470.539093 
	C421.673615,469.819000 426.599670,470.878082 429.498718,475.340637 
	C432.075928,479.307739 433.379181,484.102417 436.013275,488.440155 
	C436.013275,486.872253 436.013275,485.304352 436.121216,483.344421 
	C438.646545,485.586151 441.063934,488.219879 443.411987,491.264893 
z"/>
<path fill="#E6E6E6" opacity="1.000000" stroke="none" 
	d="
M417.182007,440.535980 
	C416.944214,439.994873 416.950714,439.812073 416.961365,439.354919 
	C421.992767,439.000488 427.020081,438.920349 432.904053,438.869537 
	C434.851166,438.834717 435.941650,438.770599 437.032135,438.706482 
	C440.768616,438.761292 444.505066,438.816101 448.697449,439.139557 
	C449.371277,439.248444 449.589142,439.088715 449.807037,438.928955 
	C451.253052,438.928955 452.699066,438.928955 454.164368,438.928955 
	C454.164368,446.572296 454.164368,453.794678 454.164368,461.017090 
	C453.870697,461.099152 453.577057,461.181213 453.283386,461.263275 
	C452.529297,459.390656 451.750397,457.527588 451.025177,455.643829 
	C447.014221,445.225525 441.361755,441.209656 430.379639,441.032654 
	C426.062225,440.963074 421.744080,440.939056 417.182007,440.535980 
z"/>
<path fill="#181818" opacity="1.000000" stroke="none" 
	d="
M450.637756,426.892273 
	C450.177704,393.358124 450.119049,359.623260 450.169373,325.428986 
	C450.844940,326.356628 451.901917,327.742157 451.906036,329.130859 
	C451.998444,360.238312 451.987244,391.346161 451.933868,422.453796 
	C451.931458,423.866852 451.350586,425.278961 450.637756,426.892273 
z"/>
<path fill="#181818" opacity="1.000000" stroke="none" 
	d="
M393.146179,438.631287 
	C392.437317,438.906586 391.728455,439.181824 390.901886,439.722839 
	C389.817169,439.988708 388.850159,439.988831 387.403137,439.690552 
	C384.285767,439.143524 381.648346,438.894867 379.010986,438.646240 
	C379.047791,436.394196 379.084595,434.142120 379.065430,431.554871 
	C388.040070,431.136505 397.070709,431.053314 406.561096,431.074585 
	C406.741394,433.762238 406.374786,435.752045 402.822845,434.004608 
	C401.418610,433.313782 399.298065,434.079041 396.319305,434.248840 
	C398.515656,436.086945 399.696564,437.075195 400.955811,438.380493 
	C399.279694,438.761292 397.525299,438.825073 395.406067,438.330383 
	C394.249054,433.690613 392.084076,432.611694 387.500427,434.013916 
	C389.382324,435.553040 391.264252,437.092163 393.146179,438.631287 
z"/>
<path fill="#181818" opacity="1.000000" stroke="none" 
	d="
M450.417542,322.721558 
	C445.671478,321.417969 442.625671,321.977570 441.174194,327.495514 
	C439.466888,333.986145 436.798950,340.224060 434.268433,346.784424 
	C434.320953,345.036743 434.423370,343.002136 435.028381,341.129944 
	C436.654968,336.096222 438.499634,331.133057 440.248810,326.138763 
	C440.518738,325.367950 440.972107,324.572418 440.944580,323.802490 
	C440.847809,321.099213 441.250305,319.028046 444.479187,318.294556 
	C448.267609,317.433990 449.187683,320.218109 450.417542,322.721558 
z"/>
<path fill="#181818" opacity="1.000000" stroke="none" 
	d="
M443.046814,498.880646 
	C447.110443,498.387604 451.212952,498.251404 455.671814,498.061584 
	C455.927185,500.120361 455.826141,502.232758 455.875793,504.662384 
	C451.712830,503.065552 447.399231,501.151520 443.046814,498.880646 
z"/>
<path fill="#181818" opacity="1.000000" stroke="none" 
	d="
M441.104492,431.544525 
	C444.015533,430.652527 447.051147,430.128937 450.196533,429.247192 
	C452.562775,430.532440 452.964905,432.397949 449.788696,432.775360 
	C447.008881,433.105652 444.087738,432.246582 441.104492,431.544525 
z"/>
<path fill="#181818" opacity="1.000000" stroke="none" 
	d="
M426.062286,431.513733 
	C428.039429,431.109528 430.099213,431.040100 432.589844,431.074829 
	C431.152710,435.756165 428.690247,434.227753 426.062286,431.513733 
z"/>
<path fill="#181818" opacity="1.000000" stroke="none" 
	d="
M432.530212,349.987213 
	C432.410583,351.505859 431.916412,353.024323 431.155457,354.758728 
	C428.288574,352.544342 427.562347,350.590027 432.530212,349.987213 
z"/>
<path fill="#181818" opacity="1.000000" stroke="none" 
	d="
M415.037170,431.514160 
	C416.062469,431.109558 417.145538,431.040131 418.624756,431.074829 
	C418.524597,432.057800 418.028351,432.936646 417.532135,433.815491 
	C416.719757,433.160095 415.907349,432.504700 415.037170,431.514160 
z"/>
<path fill="#181818" opacity="1.000000" stroke="none" 
	d="
M436.028687,431.494934 
	C436.744446,431.109619 437.509460,431.040283 438.647614,431.074707 
	C438.679352,431.964264 438.337952,432.750061 437.996521,433.535828 
	C437.356995,432.960846 436.717438,432.385895 436.028687,431.494934 
z"/>
<path fill="#181818" opacity="1.000000" stroke="none" 
	d="
M436.947418,438.398682 
	C435.941650,438.770599 434.851166,438.834717 433.362885,438.791046 
	C434.264282,438.485809 435.563507,438.288361 436.947418,438.398682 
z"/>
<path fill="#181818" opacity="1.000000" stroke="none" 
	d="
M417.033142,438.386658 
	C416.314392,438.756683 415.528656,438.821564 414.355042,438.801544 
	C414.314545,437.957855 414.661865,437.199066 415.009216,436.440277 
	C415.661530,436.987335 416.313812,437.534393 417.033142,438.386658 
z"/>
<path fill="#292929" opacity="1.000000" stroke="none" 
	d="
M447.261902,487.916473 
	C446.991882,488.702942 446.382996,489.493591 445.460236,490.312256 
	C445.738617,489.533752 446.330811,488.727203 447.261902,487.916473 
z"/>
<path fill="#222222" opacity="1.000000" stroke="none" 
	d="
M374.854492,416.106506 
	C374.369141,416.775635 373.520447,417.437347 372.332764,418.033691 
	C372.826202,417.345215 373.658661,416.722137 374.854492,416.106506 
z"/>
<path fill="#181818" opacity="1.000000" stroke="none" 
	d="
M449.651245,438.900085 
	C449.589142,439.088715 449.371277,439.248444 449.168701,439.169250 
	C449.184021,438.930298 449.495422,438.871216 449.651245,438.900085 
z"/>
<path fill="#181818" opacity="1.000000" stroke="none" 
	d="
M452.466217,434.520142 
	C452.446014,434.481384 452.486420,434.558868 452.466217,434.520142 
z"/>
<path fill="#040404" opacity="1.000000" stroke="none" 
	d="
M358.140717,202.248123 
	C357.564087,203.037735 356.987457,203.827362 355.837769,204.845825 
	C354.908356,205.828323 354.551971,206.582001 354.195587,207.335663 
	C342.603943,222.746048 331.012268,238.156418 318.801910,253.785095 
	C317.831421,254.739975 317.479614,255.476517 317.127869,256.213074 
	C316.565826,257.016541 316.003784,257.819977 314.854370,258.854401 
	C313.936340,259.865326 313.605652,260.645233 313.274963,261.425171 
	C313.274963,261.425171 313.165558,261.771057 312.658020,261.880829 
	C311.497528,263.097992 310.844604,264.205383 310.191681,265.312805 
	C309.902039,265.752472 309.612366,266.192108 308.784637,266.844238 
	C307.919342,267.786194 307.592163,268.515625 307.264984,269.245056 
	C307.264984,269.245056 306.996185,269.013885 306.772003,269.127319 
	C305.451447,270.963379 304.355072,272.685944 303.258698,274.408539 
	C301.278839,277.105072 299.299011,279.801605 296.739380,282.757935 
	C295.807404,283.737091 295.455200,284.456482 295.102966,285.175842 
	C295.093445,285.506256 294.955261,285.768982 294.119507,286.093872 
	C293.064240,287.200348 292.577911,288.177063 292.091614,289.153748 
	C291.808746,289.633209 291.525848,290.112640 290.684692,290.777466 
	C289.781799,291.678558 289.437195,292.394287 289.092590,293.109985 
	C289.092590,293.109985 289.001801,293.020264 288.702332,293.084473 
	C288.026855,293.908569 287.650818,294.668518 287.274780,295.428436 
	C282.261169,302.112000 277.247559,308.795563 271.989532,315.719818 
	C269.109253,314.092896 266.157379,312.545410 263.888855,310.305756 
	C249.241989,295.845367 234.753510,281.224670 220.172623,266.697174 
	C219.388672,265.916107 218.239700,265.501434 216.875702,264.913666 
	C217.004227,263.523895 217.517700,262.136627 218.522552,260.312866 
	C219.264648,258.790863 219.515366,257.705353 219.766083,256.619873 
	C219.766068,256.619873 219.722061,256.259033 220.222137,256.037842 
	C221.038010,254.373917 221.353806,252.931183 221.669601,251.488434 
	C222.101974,250.215256 222.534348,248.942078 223.381256,247.341248 
	C223.888947,246.347641 223.982086,245.681702 224.075226,245.015762 
	C224.370117,244.216736 224.665009,243.417725 225.471436,242.248352 
	C226.153076,241.038391 226.323181,240.198792 226.493286,239.359177 
	C226.520752,239.023865 226.619019,238.710785 227.277008,238.158142 
	C229.414841,234.108688 231.063751,230.320999 232.712662,226.533310 
	C232.712662,226.533310 232.733612,226.199310 233.225647,226.039597 
	C234.018677,225.066223 234.319687,224.252548 234.620712,223.438889 
	C234.975143,222.755676 235.329575,222.072479 236.264435,221.185425 
	C237.237854,219.999054 237.630859,219.016525 238.023865,218.033981 
	C238.023865,218.033981 237.995941,218.006760 238.361404,217.981262 
	C240.087708,215.861267 241.448547,213.766739 242.809402,211.672211 
	C243.984818,210.212158 245.160233,208.752090 246.944855,207.071503 
	C247.958206,206.102539 248.362350,205.354095 248.766510,204.605652 
	C251.222046,202.101746 253.677582,199.597824 256.781128,196.999283 
	C258.306244,196.013748 259.183350,195.122849 260.060486,194.231934 
	C260.060486,194.231934 260.242218,193.883240 260.771790,193.897461 
	C262.227814,193.054962 263.154205,192.198257 264.080627,191.341522 
	C264.700439,190.849548 265.320251,190.357559 266.622009,189.863312 
	C269.878265,188.273895 272.452637,186.686737 275.027008,185.099579 
	C275.310364,184.928665 275.593750,184.757751 276.520233,184.685852 
	C282.813995,182.767075 288.464630,180.749283 294.115295,178.731506 
	C296.807495,178.160431 299.499695,177.589355 302.742371,177.230042 
	C303.899963,177.227600 304.507111,177.013367 305.114258,176.799133 
	C307.126801,176.534073 309.139374,176.269012 311.897888,176.313446 
	C316.463135,176.270615 320.282379,175.918274 324.101654,175.565933 
	C327.403473,175.505722 330.705292,175.445496 334.554260,175.749619 
	C336.434418,175.927582 337.767365,175.741211 339.100342,175.554840 
	C340.115082,175.498474 341.129822,175.442123 342.598938,175.736343 
	C344.068878,175.907791 345.084381,175.728683 346.099915,175.549576 
	C347.759003,175.493347 349.418121,175.437134 351.563904,175.732513 
	C353.067139,175.907257 354.083649,175.730377 355.100189,175.553528 
	C356.114960,175.497574 357.129761,175.441620 358.598694,175.735657 
	C360.068787,175.909607 361.084747,175.733597 362.100677,175.557587 
	C363.115204,175.502228 364.129761,175.446869 365.691772,175.799072 
	C368.126953,176.441879 370.141357,176.351593 371.860016,177.020859 
	C373.115692,177.509796 373.982056,178.998352 375.021973,180.041336 
	C374.169525,181.236969 373.317108,182.432602 371.847595,183.819824 
	C370.482483,185.334335 369.734406,186.657242 368.986359,187.980148 
	C368.986359,187.980148 369.000000,188.000000 368.639587,188.026886 
	C367.917969,188.813766 367.556763,189.573761 367.195557,190.333771 
	C365.908875,192.072113 364.622223,193.810471 362.750031,195.792648 
	C361.816162,196.761948 361.467804,197.487411 361.119446,198.212891 
	C360.828796,198.683716 360.538177,199.154556 359.690369,199.832916 
	C358.802399,200.776337 358.471558,201.512238 358.140717,202.248123 
z"/>
<path fill="#E8E8E8" opacity="1.000000" stroke="none" 
	d="
M193.983337,441.718445 
	C193.478073,441.498352 192.972824,441.278259 192.002472,440.992920 
	C190.668976,440.899902 189.800568,440.872131 188.932175,440.844360 
	C188.671967,440.615326 188.370712,440.528290 187.656799,440.404968 
	C187.861237,439.768616 188.409500,438.961182 189.018158,438.912750 
	C191.665222,438.702148 194.329880,438.712646 196.988144,438.642822 
	C197.441254,438.706207 197.894379,438.769592 199.138367,438.830566 
	C206.616150,438.765289 213.303055,438.702423 219.989960,438.639587 
	C221.388885,438.710907 222.787827,438.782257 224.923706,438.833618 
	C226.103958,438.789124 226.547241,438.764587 226.990540,438.740051 
	C226.054810,439.309540 225.150345,440.310730 224.178467,440.381134 
	C215.324615,441.022369 212.610596,443.789948 212.610001,452.506653 
	C212.609116,465.339142 212.621643,478.171600 212.628159,491.004089 
	C212.629059,492.784698 212.628296,494.565277 212.628296,496.019928 
	C233.530685,499.979858 247.129639,492.870270 251.713852,471.126984 
	C252.113693,471.496002 252.513550,471.864990 252.913391,472.234009 
	C252.913391,480.707733 252.913391,489.181458 252.913391,497.909912 
	C231.127319,497.909912 209.135345,497.909912 185.869537,497.909912 
	C199.600845,493.710968 199.680740,493.665192 199.729767,479.842529 
	C199.765228,469.844666 199.654510,459.846283 199.417480,449.051941 
	C197.478424,446.076660 195.730881,443.897552 193.983337,441.718445 
z"/>
<path fill="#EAEAEA" opacity="1.000000" stroke="none" 
	d="
M268.729431,441.907410 
	C266.073059,441.081726 263.762604,440.463776 261.452118,439.845856 
	C261.465790,439.655731 261.479431,439.465637 261.493073,439.275513 
	C273.549774,439.275513 285.606476,439.275513 297.681335,439.275513 
	C297.596069,439.605316 297.571930,440.105896 297.444397,440.133789 
	C287.297150,442.354370 286.155334,443.738525 286.126038,454.146851 
	C286.099365,463.628601 286.123230,473.110443 286.110809,482.592255 
	C286.096497,493.507843 287.431000,495.175690 297.908844,497.769714 
	C285.716492,497.769714 273.524139,497.769714 261.331787,497.769714 
	C261.311401,497.542358 261.290985,497.315033 261.270569,497.087677 
	C262.648102,496.911407 264.052338,496.850037 265.398254,496.537567 
	C269.664795,495.547089 272.924713,493.188690 272.984985,488.539185 
	C273.157135,475.264435 273.192200,461.980499 272.817230,448.713257 
	C272.754150,446.480438 270.381104,444.312836 268.729431,441.907410 
z"/>
<path fill="#E9E9E9" opacity="1.000000" stroke="none" 
	d="
M360.723328,471.047089 
	C363.335083,473.642914 365.946838,476.238708 368.803986,479.422546 
	C369.681580,480.453918 370.313812,480.897186 371.026306,481.614258 
	C371.713501,482.259705 372.320374,482.631409 373.009338,483.396973 
	C373.162628,484.857086 373.233887,485.923279 373.305115,486.989471 
	C373.234192,488.715149 373.163239,490.440826 373.106537,493.014648 
	C371.767761,495.169800 375.947388,500.061798 370.131104,498.476715 
	C358.020905,485.855255 345.916107,473.228638 333.797089,460.615662 
	C330.356079,457.034454 326.873657,453.493011 323.118988,449.356628 
	C321.224762,448.184937 319.621796,447.589996 318.018799,446.995056 
	C315.680420,444.243011 313.342041,441.490967 311.131012,438.888794 
	C316.354004,438.888794 322.256531,438.804199 328.152588,438.961761 
	C329.301392,438.992462 330.695679,439.700378 331.518250,440.543304 
	C339.266937,448.483978 346.916046,456.521759 354.812988,465.131226 
	C355.978790,466.509613 356.925476,467.288239 357.872192,468.066895 
	C357.872192,468.066895 357.952240,468.048889 357.970856,468.405701 
	C358.900757,469.524048 359.812042,470.285553 360.723328,471.047089 
z"/>
<path fill="#E2E2E2" opacity="1.000000" stroke="none" 
	d="
M372.927277,483.003082 
	C372.320374,482.631409 371.713501,482.259705 371.237305,481.428131 
	C371.356262,480.342529 371.344513,479.716766 371.332794,479.091034 
	C371.261322,471.017090 371.189819,462.943115 371.370544,454.220215 
	C371.353638,452.694794 371.084534,451.818268 370.815430,450.941772 
	C370.236694,449.608276 369.657928,448.274780 368.991638,446.252716 
	C368.286499,445.035980 367.668915,444.507843 367.051331,443.979675 
	C363.890839,442.718658 360.730347,441.457611 357.256378,439.850586 
	C356.942902,439.504578 357.003906,439.010986 357.003906,439.010986 
	C364.032684,438.953979 371.061462,438.896942 378.550598,438.743103 
	C381.648346,438.894867 384.285767,439.143524 387.040710,439.704163 
	C387.158264,440.016205 387.031982,440.051849 386.684662,440.215302 
	C377.977539,441.897125 375.299744,444.214447 374.068512,450.996063 
	C373.755951,455.896576 373.312897,460.793213 373.166779,465.698669 
	C373.014008,470.825989 373.146851,475.961853 373.156189,481.803986 
	C373.080811,482.677032 373.004028,482.840057 372.927277,483.003082 
z"/>
<path fill="#E5E5E5" opacity="1.000000" stroke="none" 
	d="
M320.029633,481.002808 
	C320.592224,486.810638 320.577881,493.006927 327.452667,495.451935 
	C330.045227,496.373932 332.875488,496.627502 335.577301,497.817383 
	C325.418884,497.817383 315.260468,497.817383 305.102020,497.817383 
	C314.029053,496.247742 319.270233,491.728760 318.602722,481.565369 
	C319.301056,481.107758 319.665344,481.055298 320.029633,481.002808 
z"/>
<path fill="#B5B5B5" opacity="1.000000" stroke="none" 
	d="
M320.197449,480.634583 
	C319.665344,481.055298 319.301056,481.107758 318.661438,481.136414 
	C318.239655,470.052063 318.093231,458.991547 317.982819,447.463043 
	C319.621796,447.589996 321.224762,448.184937 322.945374,449.040802 
	C319.515961,448.928680 320.528595,451.662262 320.504272,453.352234 
	C320.375092,462.322388 320.396210,471.294739 320.197449,480.634583 
z"/>
<path fill="#181818" opacity="1.000000" stroke="none" 
	d="
M196.880997,438.316284 
	C194.329880,438.712646 191.665222,438.702148 189.018158,438.912750 
	C188.409500,438.961182 187.861237,439.768616 187.464447,440.551453 
	C183.120956,439.999023 184.882217,436.445648 185.399658,434.243988 
	C185.993011,431.719482 187.923370,429.509186 189.625504,427.081909 
	C189.790924,430.007874 190.929077,431.630859 194.591156,431.124237 
	C195.585632,433.470795 196.179749,435.730286 196.880997,438.316284 
z"/>
<path fill="#181818" opacity="1.000000" stroke="none" 
	d="
M402.550049,482.116119 
	C403.882568,492.843689 402.522430,494.617859 391.050171,497.731323 
	C389.382812,498.568359 387.816132,499.028107 386.249451,499.487854 
	C386.161224,499.084320 386.072998,498.680817 385.984802,498.277283 
	C387.573975,497.140778 389.419128,496.231445 390.683685,494.806793 
	C392.074615,493.239746 392.931458,491.198639 394.790955,488.067657 
	C395.145477,490.912201 395.303619,492.181000 395.461761,493.449799 
	C395.903748,493.583374 396.345764,493.716980 396.787781,493.850555 
	C398.586029,489.975952 400.384247,486.101318 402.550049,482.116119 
z"/>
<path fill="#181818" opacity="1.000000" stroke="none" 
	d="
M401.013489,498.937561 
	C406.406219,498.468140 411.804962,498.396942 417.595398,498.433228 
	C414.458221,501.612000 410.641418,503.830414 405.731049,504.067291 
	C402.054138,504.244690 400.430817,503.069794 401.013489,498.937561 
z"/>
<path fill="#181818" opacity="1.000000" stroke="none" 
	d="
M219.995880,438.291443 
	C213.303055,438.702423 206.616150,438.765289 199.470367,438.731262 
	C200.280182,437.774078 201.479797,436.313141 202.829559,436.157928 
	C208.527176,435.502747 214.269531,435.236603 220.360992,434.802124 
	C220.274002,435.562775 220.137909,436.753082 219.995880,438.291443 
z"/>
<path fill="#181818" opacity="1.000000" stroke="none" 
	d="
M392.963165,441.047791 
	C400.237213,441.145599 402.364319,443.110931 403.078613,450.607574 
	C400.524475,449.842041 398.717560,446.614899 395.294739,448.634125 
	C394.703094,447.609833 393.901428,446.647888 393.573914,445.545135 
	C393.180542,444.220795 393.190979,442.776459 392.963165,441.047791 
z"/>
<path fill="#181818" opacity="1.000000" stroke="none" 
	d="
M374.430237,450.982361 
	C375.299744,444.214447 377.977539,441.897125 386.703125,440.278259 
	C387.227356,443.354004 386.146881,445.151794 382.535217,445.085571 
	C380.550110,445.049133 378.060211,445.066498 378.432129,448.585938 
	C378.501740,449.244598 376.069611,450.167633 374.430237,450.982361 
z"/>
<path fill="#181818" opacity="1.000000" stroke="none" 
	d="
M370.134399,498.865509 
	C375.947388,500.061798 371.767761,495.169800 373.203278,493.436768 
	C377.859253,498.384827 377.822968,501.709686 372.580139,504.921844 
	C371.748596,502.992249 370.943146,501.123291 370.134399,498.865509 
z"/>
<path fill="#181818" opacity="1.000000" stroke="none" 
	d="
M424.184662,498.861664 
	C429.366577,498.464844 434.719238,498.393372 440.531372,498.410767 
	C439.925659,499.326080 438.810455,500.914307 437.804077,500.848114 
	C433.304260,500.552155 428.835449,499.784393 424.184662,498.861664 
z"/>
<path fill="#181818" opacity="1.000000" stroke="none" 
	d="
M193.991791,442.155273 
	C195.730881,443.897552 197.478424,446.076660 199.187195,448.633362 
	C195.192245,448.667938 193.250778,446.709106 193.991791,442.155273 
z"/>
<path fill="#181818" opacity="1.000000" stroke="none" 
	d="
M356.985413,438.662903 
	C357.003906,439.010986 356.942902,439.504578 356.891968,439.747986 
	C355.723145,440.063904 354.605316,440.136383 352.106873,440.298431 
	C353.632965,438.501007 354.497589,437.482605 355.362244,436.464233 
	C355.897156,437.081085 356.432037,437.697968 356.985413,438.662903 
z"/>
<path fill="#181818" opacity="1.000000" stroke="none" 
	d="
M373.009338,483.396973 
	C373.004028,482.840057 373.080811,482.677032 373.258484,482.263275 
	C376.148438,483.322479 377.881165,484.768829 373.650513,486.965088 
	C373.233887,485.923279 373.162628,484.857086 373.009338,483.396973 
z"/>
<path fill="#181818" opacity="1.000000" stroke="none" 
	d="
M402.573090,474.101685 
	C403.001801,475.724518 403.080963,477.443817 403.040222,479.578857 
	C399.788513,478.410980 400.582153,476.355530 402.573090,474.101685 
z"/>
<path fill="#181818" opacity="1.000000" stroke="none" 
	d="
M402.571472,466.102051 
	C403.001129,467.724609 403.081360,469.443848 403.042084,471.578918 
	C399.786896,470.413483 400.583862,468.356934 402.571472,466.102051 
z"/>
<path fill="#CFCFCF" opacity="1.000000" stroke="none" 
	d="
M360.683838,470.744629 
	C359.812042,470.285553 358.900757,469.524048 357.960754,468.445496 
	C358.836151,468.899689 359.740234,469.670929 360.683838,470.744629 
z"/>
<path fill="#CFCFCF" opacity="1.000000" stroke="none" 
	d="
M357.807739,467.760010 
	C356.925476,467.288239 355.978790,466.509613 355.000488,465.403259 
	C355.893677,465.868042 356.818512,466.660614 357.807739,467.760010 
z"/>
<path fill="#CFCFCF" opacity="1.000000" stroke="none" 
	d="
M370.998535,479.375061 
	C371.344513,479.716766 371.356262,480.342529 371.157013,481.154358 
	C370.313812,480.897186 369.681580,480.453918 368.990967,479.718079 
	C369.509827,479.503387 370.087067,479.581238 370.998535,479.375061 
z"/>
<path fill="#CFCFCF" opacity="1.000000" stroke="none" 
	d="
M370.725037,451.242126 
	C371.084534,451.818268 371.353638,452.694794 371.425598,453.750122 
	C371.030457,453.133453 370.832550,452.337952 370.725037,451.242126 
z"/>
<path fill="#181818" opacity="1.000000" stroke="none" 
	d="
M226.973495,438.429169 
	C226.547241,438.764587 226.103958,438.789124 225.335281,438.736938 
	C225.249237,437.933411 225.488556,437.206604 225.727875,436.479797 
	C226.137405,437.025970 226.546936,437.572144 226.973495,438.429169 
z"/>
<path fill="#181818" opacity="1.000000" stroke="none" 
	d="
M394.093323,498.788757 
	C394.457062,498.497955 394.899597,498.423950 395.664429,498.461975 
	C395.381866,498.717834 394.776947,498.861694 394.093323,498.788757 
z"/>
<path fill="#181818" opacity="1.000000" stroke="none" 
	d="
M402.640778,460.058716 
	C402.994446,460.451904 403.071442,460.898315 403.033081,461.669617 
	C402.438843,461.677734 401.959930,461.360931 401.481049,461.044159 
	C401.775391,460.733398 402.069733,460.422668 402.640778,460.058716 
z"/>
<path fill="#CFCFCF" opacity="1.000000" stroke="none" 
	d="
M367.149048,444.263245 
	C367.668915,444.507843 368.286499,445.035980 368.898132,445.901459 
	C368.343719,445.674774 367.795227,445.110809 367.149048,444.263245 
z"/>
<path fill="#181818" opacity="1.000000" stroke="none" 
	d="
M189.233002,441.134613 
	C189.800568,440.872131 190.668976,440.899902 191.737885,441.116516 
	C191.136887,441.345215 190.335342,441.385040 189.233002,441.134613 
z"/>
<path fill="#2F2F2F" opacity="1.000000" stroke="none" 
	d="
M375.344147,179.902328 
	C373.982056,178.998352 373.115692,177.509796 371.860016,177.020859 
	C370.141357,176.351593 368.126953,176.441879 366.065002,175.884430 
	C369.756226,175.562241 373.621704,175.562241 378.349854,175.562241 
	C377.273743,177.246902 376.470032,178.505112 375.344147,179.902328 
z"/>
<path fill="#2F2F2F" opacity="1.000000" stroke="none" 
	d="
M293.744690,178.668015 
	C288.464630,180.749283 282.813995,182.767075 276.770386,184.662476 
	C282.042938,182.561584 287.708496,180.583054 293.744690,178.668015 
z"/>
<path fill="#2F2F2F" opacity="1.000000" stroke="none" 
	d="
M323.661530,175.421326 
	C320.282379,175.918274 316.463135,176.270615 312.335114,176.364136 
	C315.758057,175.829117 319.489716,175.552917 323.661530,175.421326 
z"/>
<path fill="#2F2F2F" opacity="1.000000" stroke="none" 
	d="
M232.421692,226.720184 
	C231.063751,230.320999 229.414841,234.108688 227.425293,237.959778 
	C228.766678,234.317795 230.448700,230.612442 232.421692,226.720184 
z"/>
<path fill="#2F2F2F" opacity="1.000000" stroke="none" 
	d="
M274.668274,185.091003 
	C272.452637,186.686737 269.878265,188.273895 266.913330,189.788361 
	C269.118347,188.171265 271.713928,186.626846 274.668274,185.091003 
z"/>
<path fill="#2F2F2F" opacity="1.000000" stroke="none" 
	d="
M242.500748,211.803619 
	C241.448547,213.766739 240.087708,215.861267 238.378906,217.987579 
	C239.418015,215.991287 240.805054,213.963165 242.500748,211.803619 
z"/>
<path fill="#343434" opacity="1.000000" stroke="none" 
	d="
M303.573669,274.291199 
	C304.355072,272.685944 305.451447,270.963379 306.904541,269.245972 
	C306.137085,270.892059 305.012878,272.532959 303.573669,274.291199 
z"/>
<path fill="#2F2F2F" opacity="1.000000" stroke="none" 
	d="
M338.693726,175.412750 
	C337.767365,175.741211 336.434418,175.927582 334.996521,175.834610 
	C336.023438,175.460403 337.155304,175.365540 338.693726,175.412750 
z"/>
<path fill="#2F2F2F" opacity="1.000000" stroke="none" 
	d="
M369.294769,187.877869 
	C369.734406,186.657242 370.482483,185.334335 371.580872,183.989502 
	C371.155243,185.236923 370.379211,186.506256 369.294769,187.877869 
z"/>
<path fill="#343434" opacity="1.000000" stroke="none" 
	d="
M310.497864,265.214417 
	C310.844604,264.205383 311.497528,263.097992 312.500977,261.971619 
	C312.169006,263.007111 311.486542,264.061554 310.497864,265.214417 
z"/>
<path fill="#2F2F2F" opacity="1.000000" stroke="none" 
	d="
M221.380127,251.702225 
	C221.353806,252.931183 221.038010,254.373917 220.344299,255.903259 
	C220.341141,254.631912 220.715897,253.273972 221.380127,251.702225 
z"/>
<path fill="#2F2F2F" opacity="1.000000" stroke="none" 
	d="
M263.764160,191.344635 
	C263.154205,192.198257 262.227814,193.054962 260.961548,193.845978 
	C261.563721,192.969421 262.505707,192.158585 263.764160,191.344635 
z"/>
<path fill="#2F2F2F" opacity="1.000000" stroke="none" 
	d="
M259.741821,194.255112 
	C259.183350,195.122849 258.306244,196.013748 257.085968,196.879883 
	C257.636292,195.996155 258.529755,195.137222 259.741821,194.255112 
z"/>
<path fill="#2F2F2F" opacity="1.000000" stroke="none" 
	d="
M361.712463,175.413727 
	C361.084747,175.733597 360.068787,175.909607 358.972382,175.819275 
	C359.702698,175.458572 360.513458,175.364227 361.712463,175.413727 
z"/>
<path fill="#2F2F2F" opacity="1.000000" stroke="none" 
	d="
M354.711731,175.411438 
	C354.083649,175.730377 353.067139,175.907257 351.971436,175.816772 
	C352.702576,175.456085 353.512939,175.362717 354.711731,175.411438 
z"/>
<path fill="#2F2F2F" opacity="1.000000" stroke="none" 
	d="
M345.710907,175.408966 
	C345.084381,175.728683 344.068878,175.907791 342.972595,175.820160 
	C343.701874,175.458405 344.511871,175.363388 345.710907,175.408966 
z"/>
<path fill="#2F2F2F" opacity="1.000000" stroke="none" 
	d="
M219.503632,256.815979 
	C219.515366,257.705353 219.264648,258.790863 218.673035,259.975952 
	C218.635162,259.054382 218.938171,258.033234 219.503632,256.815979 
z"/>
<path fill="#2F2F2F" opacity="1.000000" stroke="none" 
	d="
M237.739197,218.163208 
	C237.630859,219.016525 237.237854,219.999054 236.510361,221.029037 
	C236.602097,220.148468 237.028305,219.220444 237.739197,218.163208 
z"/>
<path fill="#343434" opacity="1.000000" stroke="none" 
	d="
M292.402832,289.055756 
	C292.577911,288.177063 293.064240,287.200348 293.912872,286.193115 
	C293.754822,287.094269 293.234467,288.026031 292.402832,289.055756 
z"/>
<path fill="#2F2F2F" opacity="1.000000" stroke="none" 
	d="
M223.833481,245.193329 
	C223.982086,245.681702 223.888947,246.347641 223.531494,247.038574 
	C223.375381,246.499344 223.483566,245.935120 223.833481,245.193329 
z"/>
<path fill="#2F2F2F" opacity="1.000000" stroke="none" 
	d="
M248.465317,204.719116 
	C248.362350,205.354095 247.958206,206.102539 247.197769,206.883316 
	C247.282364,206.221313 247.723251,205.526962 248.465317,204.719116 
z"/>
<path fill="#2F2F2F" opacity="1.000000" stroke="none" 
	d="
M226.249207,239.554657 
	C226.323181,240.198792 226.153076,241.038391 225.643372,241.974640 
	C225.537567,241.297562 225.771347,240.523849 226.249207,239.554657 
z"/>
<path fill="#2F2F2F" opacity="1.000000" stroke="none" 
	d="
M234.325134,223.573334 
	C234.319687,224.252548 234.018677,225.066223 233.360413,225.940430 
	C233.345276,225.236557 233.687408,224.472168 234.325134,223.573334 
z"/>
<path fill="#2F2F2F" opacity="1.000000" stroke="none" 
	d="
M354.494751,207.228973 
	C354.551971,206.582001 354.908356,205.828323 355.606506,205.029739 
	C355.563477,205.697311 355.178680,206.409805 354.494751,207.228973 
z"/>
<path fill="#2F2F2F" opacity="1.000000" stroke="none" 
	d="
M361.414001,198.126190 
	C361.467804,197.487411 361.816162,196.761948 362.490875,195.993744 
	C362.447693,196.647171 362.078156,197.343338 361.414001,198.126190 
z"/>
<path fill="#343434" opacity="1.000000" stroke="none" 
	d="
M287.573273,295.321960 
	C287.650818,294.668518 288.026855,293.908569 288.756622,293.117920 
	C288.697479,293.796661 288.284637,294.506073 287.573273,295.321960 
z"/>
<path fill="#343434" opacity="1.000000" stroke="none" 
	d="
M289.383362,293.029480 
	C289.437195,292.394287 289.781799,291.678558 290.448303,290.931213 
	C290.404877,291.582733 290.039520,292.265869 289.383362,293.029480 
z"/>
<path fill="#343434" opacity="1.000000" stroke="none" 
	d="
M317.405823,256.093140 
	C317.479614,255.476517 317.831421,254.739975 318.517029,253.966614 
	C318.461853,254.610962 318.072845,255.292099 317.405823,256.093140 
z"/>
<path fill="#343434" opacity="1.000000" stroke="none" 
	d="
M313.559143,261.289307 
	C313.605652,260.645233 313.936340,259.865326 314.615967,259.033936 
	C314.591064,259.706146 314.217224,260.429810 313.559143,261.289307 
z"/>
<path fill="#2F2F2F" opacity="1.000000" stroke="none" 
	d="
M358.433472,202.150787 
	C358.471558,201.512238 358.802399,200.776337 359.457306,199.991806 
	C359.429657,200.646591 359.077942,201.350006 358.433472,202.150787 
z"/>
<path fill="#2F2F2F" opacity="1.000000" stroke="none" 
	d="
M304.847717,176.724487 
	C304.507111,177.013367 303.899963,177.227600 303.155029,177.255096 
	C303.538544,176.928864 304.059875,176.789352 304.847717,176.724487 
z"/>
<path fill="#343434" opacity="1.000000" stroke="none" 
	d="
M307.544891,269.133392 
	C307.592163,268.515625 307.919342,267.786194 308.578949,267.014160 
	C308.549164,267.654938 308.186981,268.338318 307.544891,269.133392 
z"/>
<path fill="#343434" opacity="1.000000" stroke="none" 
	d="
M295.388672,285.076111 
	C295.455200,284.456482 295.807404,283.737091 296.486389,282.980804 
	C296.433563,283.621368 296.053955,284.298889 295.388672,285.076111 
z"/>
<path fill="#2F2F2F" opacity="1.000000" stroke="none" 
	d="
M367.473755,190.200439 
	C367.556763,189.573761 367.917969,188.813766 368.629578,188.020355 
	C368.570618,188.680328 368.161316,189.373718 367.473755,190.200439 
z"/>
<path fill="#020202" opacity="1.000000" stroke="none" 
	d="
M393.461212,438.709137 
	C391.264252,437.092163 389.382324,435.553040 387.500427,434.013916 
	C392.084076,432.611694 394.249054,433.690613 395.049988,438.219055 
	C394.631226,438.706451 394.203735,438.746735 393.461212,438.709137 
z"/>
</svg>